<?xml version="1.0" encoding="UTF-8" standalone="no"?>
<svg
   xmlns:dc="http://purl.org/dc/elements/1.1/"
   xmlns:cc="http://creativecommons.org/ns#"
   xmlns:rdf="http://www.w3.org/1999/02/22-rdf-syntax-ns#"
   xmlns:svg="http://www.w3.org/2000/svg"
   xmlns="http://www.w3.org/2000/svg"
   xmlns:sodipodi="http://sodipodi.sourceforge.net/DTD/sodipodi-0.dtd"
   xmlns:inkscape="http://www.inkscape.org/namespaces/inkscape"
   width="210mm"
   height="297mm"
   viewBox="0 0 210 297"
   version="1.1"
   id="svg74"
   inkscape:version="1.0.2 (e86c870879, 2021-01-15, custom)"
   sodipodi:docname="burgerMenu.svg">
  <defs
     id="defs68">
    <rect
       x="21.166667"
       y="221.49405"
       width="173.1131"
       height="36.285714"
       id="rect78" />
  </defs>
  <sodipodi:namedview
     id="base"
     pagecolor="#ffffff"
     bordercolor="#666666"
     borderopacity="1.0"
     inkscape:pageopacity="0.0"
     inkscape:pageshadow="2"
     inkscape:zoom="0.35"
     inkscape:cx="400"
     inkscape:cy="547.14286"
     inkscape:document-units="mm"
     inkscape:current-layer="layer1"
     inkscape:document-rotation="0"
     showgrid="false"
     inkscape:window-width="1920"
     inkscape:window-height="1020"
     inkscape:window-x="0"
     inkscape:window-y="0"
     inkscape:window-maximized="0" />
  <metadata
     id="metadata71">
    <rdf:RDF>
      <cc:Work
         rdf:about="">
        <dc:format>image/svg+xml</dc:format>
        <dc:type
           rdf:resource="http://purl.org/dc/dcmitype/StillImage" />
        <dc:title></dc:title>
      </cc:Work>
    </rdf:RDF>
  </metadata>
  <g
     inkscape:label="Calque 1"
     inkscape:groupmode="layer"
     id="layer1">
    <text
       xml:space="preserve"
       id="text76"
       style="font-size:38.1px;line-height:1.25;font-family:sans-serif;white-space:pre;shape-inside:url(#rect78);"><tspan
         style="visibility:hidden"
         x="21.166016"
         y="291.48887"><tspan
           dx="0 32.87241"
           style="font-size:38.1px">ME</tspan></tspan></text>
    <text
       xml:space="preserve"
       style="font-size:38.1px;line-height:1.25;font-family:sans-serif;stroke-width:0.264583;fill:#000000;"
       x="32.505951"
       y="237.36905"
       id="text84"><tspan
         sodipodi:role="line"
         id="tspan82"
         x="32.505951"
         y="237.36905"
         style="font-size:38.1px;stroke-width:0.264583;fill:#000000;"> MENU</tspan></text>
    <path
       style="fill:#000000;stroke-width:0.264583"
       id="path86"
       d="m 35.581891,181.70432 c 3.141983,-0.0478 6.284455,-0.0413 9.42667,-0.0283 2.478482,0.004 4.956995,0.016 7.43549,0.0164 3.166452,-0.029 6.333109,-0.0151 9.499643,-0.0257 3.684211,-0.0154 7.368397,-0.002 11.052616,-0.002 3.270975,0.0101 6.541937,-7.9e-4 9.812901,0.0117 3.428606,-0.0165 6.857288,-0.01 10.285929,-0.008 3.051267,0.009 6.10254,0.004 9.15381,0.009 2.86739,0.007 5.73478,-9e-5 8.60219,-0.002 3.69252,-0.0151 7.38506,-0.0252 11.07761,-0.0126 3.33122,-0.004 6.66241,0.0103 9.99363,0.0104 2.71195,-0.0104 5.42388,0.008 8.13579,0.0207 1.95535,0.0172 3.91064,0.002 5.86596,-0.008 2.33798,0.004 4.67595,10e-4 7.01392,0.003 1.78475,-0.004 3.56949,0.003 5.35422,0.008 0,0 9.06834,-6.58853 9.06834,-6.58853 v 0 c -1.79244,0.005 -3.58489,0.0122 -5.37735,0.008 -2.34083,0.002 -4.68166,-7.9e-4 -7.02249,0.003 -1.94841,-0.01 -3.89678,-0.0247 -5.84521,-0.008 -2.73091,0.0124 -5.46185,0.031 -8.19279,0.0207 -3.34073,1e-5 -6.68142,0.0145 -10.02215,0.0104 -3.68096,0.0124 -7.3619,0.003 -11.04283,-0.0126 -2.86596,-0.002 -5.73191,-0.009 -8.59786,-0.002 -3.0595,0.005 -6.11901,-5e-5 -9.17851,0.009 -3.421699,0.002 -6.843436,0.009 -10.265096,-0.008 -3.281733,0.0125 -6.563461,0.002 -9.845202,0.0117 -3.682664,-1e-5 -7.365293,0.0137 -11.047946,-0.002 -3.142975,-0.0106 -6.286077,0.003 -9.428967,-0.0257 -2.493515,2.7e-4 -4.987049,0.0123 -7.480549,0.0164 -3.116273,0.0128 -6.232824,0.0203 -9.348856,-0.0283 0,0 -9.082913,6.59912 -9.082913,6.59912 z" />
    <path
       style="fill:#000000;stroke-width:0.264583"
       id="path88"
       d="m 37.475665,161.27895 c 3.649276,-0.009 7.302942,-0.10531 10.95003,0.0425 2.634821,0.18644 5.261858,0.46472 7.899519,0.61027 2.289923,0.0995 4.582427,0.10516 6.874065,0.10612 3.640254,-0.0246 7.280455,-0.0402 10.920791,-0.0293 3.025058,0.0165 6.05019,0.0197 9.075277,0.0118 2.611837,0.007 5.223618,0.0139 7.835468,0.0104 2.36378,2.7e-4 4.727541,0.008 7.091321,0.004 2.675614,-0.005 5.351244,-0.0108 8.026854,-0.008 2.48256,0.008 4.96504,0.0126 7.44758,-4e-5 2.96533,-0.004 5.93062,-0.007 8.89595,-0.004 2.633,-0.009 5.26597,0.017 7.89895,0.0104 2.35267,5.3e-4 4.70534,-10e-4 7.05801,0.005 1.87475,0.01 3.7495,0.005 5.62426,0.007 1.8295,-0.002 3.65899,-0.001 5.4885,0.002 2.07135,-0.0121 4.1359,0.0856 6.18772,-0.22998 2.47472,-0.55008 4.97377,-0.98548 7.51032,-1.07059 1.30241,0.0545 2.56336,0.40242 3.81339,0.74301 0,0 9.25002,-6.31971 9.25002,-6.31971 v 0 c -1.31468,-0.42395 -2.65652,-0.75611 -4.01879,-0.99186 -2.56972,-0.0906 -5.12856,0.35357 -7.63493,0.89313 -1.99391,0.47435 -3.98847,0.43195 -6.03099,0.38136 -1.83123,0.003 -3.66245,0.003 -5.49368,0.002 -1.88119,0.002 -3.76238,-0.003 -5.64357,0.007 -2.35742,0.006 -4.71484,0.005 -7.07227,0.005 -2.64252,-0.007 -5.28504,0.0191 -7.92759,0.0104 -2.96181,0.003 -5.92359,2.7e-4 -8.8854,-0.004 -2.4825,-0.0128 -4.96495,-0.008 -7.44747,-3e-5 -2.66807,0.003 -5.33614,-0.003 -8.00421,-0.008 -2.3676,-0.004 -4.73517,0.004 -7.10276,0.004 -2.621466,-0.004 -5.242868,0.003 -7.864323,0.0105 -3.037644,-0.008 -6.07533,-0.004 -9.11293,0.0151 -3.615261,0.0133 -7.230456,0.003 -10.845641,-0.0226 -2.276832,-0.006 -4.554273,-0.002 -6.830234,-0.074 -2.664344,-0.10762 -5.320731,-0.32916 -7.977682,-0.55069 -3.63364,-0.2173 -7.274798,-0.0509 -10.912981,-0.13832 0,0 -9.042574,6.56981 -9.042574,6.56981 z" />
    <path
       style="fill:#000000;stroke-width:0.264583"
       id="path90"
       d="m 40.404007,143.13976 c 4.360418,-0.18577 8.708535,0.0997 13.039881,0.57749 3.925083,0.53653 7.88022,0.70765 11.835439,0.82877 3.488069,0.0802 6.977134,0.0867 10.465909,0.097 3.094135,0.0131 6.188247,-0.0123 9.282395,-0.0166 4.547246,-0.0373 9.094719,-0.0287 13.64206,-0.0193 3.641609,0.0171 7.283269,0.01 10.924879,0.0227 3.2348,-7.9e-4 6.4696,-0.002 9.70441,0.003 3.10169,0.016 6.20332,-0.003 9.305,-0.009 3.3982,-0.0168 6.79636,0.006 10.19452,0.0146 2.50029,0.0161 5.0006,0.004 7.50089,0.004 3.07466,-0.0152 6.1493,-0.0111 9.22398,-0.009 2.47621,0.0117 4.95244,0.012 7.42867,0.0165 1.97161,0.007 3.94322,0.005 5.91484,0.008 0,0 9.0715,-6.59083 9.0715,-6.59083 v 0 c -1.97939,0.004 -3.95876,0.002 -5.93814,0.008 -2.49138,0.004 -4.98276,0.005 -7.47412,0.0165 -3.06632,0.002 -6.1326,0.006 -9.19888,-0.009 -2.5042,3e-5 -5.00842,-0.0118 -7.51261,0.004 -3.41159,0.009 -6.82318,0.0314 -10.2348,0.0146 -3.09345,-0.006 -6.18685,-0.025 -9.28031,-0.009 -3.23756,0.005 -6.4751,0.004 -9.71265,0.003 -3.6624,0.0125 -7.32485,0.005 -10.98725,0.0226 -4.53134,0.01 -9.0628,0.0185 -13.594062,-0.0162 -3.086024,-10e-4 -6.172071,-0.0217 -9.258052,-8e-4 -3.49822,0.0124 -6.99685,0.0212 -10.4947,-0.0397 -3.943921,-0.0862 -7.888108,-0.24198 -11.805814,-0.73598 -4.316727,-0.47795 -8.642109,-0.8275 -12.990325,-0.76371 0,0 -9.05266,6.57714 -9.05266,6.57714 z" />
    <path
       style="fill:#000000;stroke-width:0.264583"
       id="path92"
       d="m 41.064492,124.24461 c 5.668573,-0.28301 11.314101,0.0937 16.959561,0.56264 5.065165,0.31462 10.107644,0.89161 15.167284,1.27148 5.010161,0.42254 10.023827,0.79261 15.048656,0.97986 5.234548,0.12789 10.471044,0.15715 15.706957,0.14785 5.25806,-0.008 10.51611,0.003 15.77418,0.007 4.67272,0.005 9.34544,-0.004 14.01817,0.002 4.37141,0.0144 8.74281,-0.002 13.11424,0.004 3.10824,0.0225 6.21645,0.0283 9.32474,0.0335 2.2753,0.012 4.55063,0.009 6.82595,0.0115 1.85184,0.0194 3.70482,-0.0288 5.55525,0.0526 2.15424,0.31225 4.21908,1.08208 6.29115,1.73389 0,0 9.26955,-6.29409 9.26955,-6.29409 v 0 c -2.11543,-0.72706 -4.28712,-1.33519 -6.43726,-1.94146 -1.86336,-0.25673 -3.74829,-0.0894 -5.62572,-0.12828 -2.28584,0.003 -4.57168,-5.3e-4 -6.85751,0.0115 -3.13899,0.005 -6.27791,0.0111 -9.41685,0.0334 -4.37494,0.006 -8.74985,-0.0108 -13.12476,0.004 -4.67757,0.007 -9.35513,-0.001 -14.0327,0.008 -5.26934,0.009 -10.53867,0.03 -15.80803,0.0193 -5.21604,-0.0204 -10.43323,0.004 -15.647778,-0.14388 -5.012335,-0.1698 -10.020935,-0.44098 -15.010992,-0.95863 -5.090232,-0.34346 -10.160619,-0.91782 -15.256037,-1.19379 -5.587198,-0.45109 -11.163874,-0.90867 -16.775308,-0.8067 0,0 -9.062743,6.58447 -9.062743,6.58447 z" />
    <path
       style="fill:#000000;stroke-width:0.264583"
       id="path94"
       d="m 182.85128,100.30649 c -3.26984,0.63813 -6.5809,0.94775 -9.88696,1.31824 -3.05712,0.44414 -6.13351,0.70515 -9.21848,0.83935 -3.22939,0.10982 -6.46095,0.11889 -9.69184,0.12098 -3.64718,0.0141 -7.2943,-0.002 -10.94142,-0.0213 -2.93417,0.1391 -5.85757,0.43212 -8.79147,0.59049 -3.2221,0.15679 -6.44886,0.15174 -9.67379,0.17847 -4.10664,0.0166 -8.21336,0.0149 -12.32003,0.0114 -5.21736,0.0346 -10.43482,0.0237 -15.652243,0.0147 -3.779215,-0.0155 -7.558426,-0.0262 -11.337644,-0.0383 -2.930628,-0.001 -5.861225,-0.008 -8.791853,-0.005 -2.648042,-0.005 -5.29609,-0.003 -7.944133,-0.009 -2.525289,-0.0114 -5.050486,0.008 -7.575767,0.007 -2.48807,-0.002 -4.976148,-0.009 -7.464218,-0.009 -1.334606,-0.004 -2.668172,0.0171 -4.001011,-0.0554 0,0 -9.135507,6.5009 -9.135507,6.5009 v 0 c 1.360178,0.1902 2.720004,0.12934 4.092276,0.12549 2.496632,-1.8e-4 4.993273,-0.008 7.489905,-0.009 2.519145,-0.001 5.038206,0.0181 7.557362,0.007 2.656433,-0.006 5.31287,-0.004 7.969306,-0.009 2.935184,0.003 5.870334,-0.004 8.805518,-0.005 3.81417,-0.0122 7.628334,-0.0228 11.442501,-0.038 5.20169,-0.008 10.403435,-0.019 15.605048,0.0192 4.09731,-2.6e-4 8.19463,0.005 12.29193,0.0129 3.21987,0.011 6.44058,-0.002 9.65917,-0.10182 2.92826,-0.13737 5.84989,-0.36713 8.76821,-0.64382 3.66056,-0.0151 7.32111,-0.0242 10.98169,-0.007 3.22376,7.9e-4 6.44888,0.0449 9.67163,-0.0508 3.11166,-0.11686 6.22071,-0.31654 9.30283,-0.78204 3.25369,-0.46636 6.55733,-0.56061 9.78021,-1.26147 0,0 9.00878,-6.69882 9.00878,-6.69882 z" />
    <path
       style="fill:#000000;stroke-width:0.264583"
       id="path96"
       d="m 38.767205,89.519849 c 4.199948,0.268869 8.403537,0.438994 12.600852,0.748805 5.035177,0.284729 10.013691,1.129183 15.024097,1.671114 4.031094,0.400817 8.08391,0.465677 12.131188,0.519557 3.938167,0.02294 7.865936,0.358489 11.80012,0.523938 4.585145,0.147495 9.172372,0.18973 13.759458,0.218705 4.49219,0.0108 8.98438,-0.0013 13.47656,-0.0013 4.43379,0.02249 8.86754,-0.0069 13.30133,-0.0065 3.41083,0.0181 6.82165,0.02984 10.23249,0.03947 2.92502,-0.01556 5.85009,-0.0036 8.77511,0.0059 2.12175,0.01495 4.24348,0.01143 6.36524,0.0047 2.55404,-0.0088 5.10812,-0.0011 7.66217,-0.0083 2.28454,0.0034 4.56905,0.01037 6.85358,0.01336 0.32496,5.29e-4 0.64992,0.0013 0.97488,0.0019 0,0 9.06465,-6.585854 9.06465,-6.585854 v 0 c -0.32678,5.29e-4 -0.65356,0.0013 -0.98034,0.0019 -2.29679,0.003 -4.59356,0.0099 -6.89035,0.01336 -2.54643,-0.0072 -5.0929,5.29e-4 -7.63933,-0.0083 -2.12605,-0.0068 -4.25207,-0.01013 -6.3781,0.0047 -2.93038,0.0093 -5.8608,0.02141 -8.79117,0.0058 -3.44734,0.0097 -6.89464,0.02146 -10.34196,0.03995 -4.43069,0.0011 -8.86135,-0.02721 -13.29204,-7.93e-4 -4.48461,0.0034 -8.96925,1.21e-4 -13.45386,-0.0094 -4.58085,-0.0067 -9.16296,-0.02294 -13.74155,-0.180739 -3.931486,-0.159123 -7.853119,-0.522772 -11.786005,-0.57803 -4.039499,-0.01966 -8.083558,-0.06966 -12.11118,-0.409329 C 70.352729,85.072671 65.365822,84.238448 60.329439,83.860425 56.183778,83.538331 52.032397,83.36173 47.88881,83.017782 c 0,0 -9.121605,6.501707 -9.121605,6.501707 z" />
  </g>
</svg>
